#N canvas 413 59 928 680 10;
#X obj 5 54 netreceive -u -b;
#X obj 5 74 oscparse;
#X obj 5 95 route list;
#X msg 5 34 listen 7000;
#X obj 5 135 route str;
#X obj 324 184 netsend -u -b;
#X obj 323 124 list prepend send;
#X obj 323 145 list trim;
#X msg 386 164 disconnect;
#X obj 256 198 oscparse;
#X obj 256 219 print;
#X msg 323 34 connect 10.10.41.11 4703;
#X obj 467 105 oscformat eos ping;
#X obj 467 83 bng 15 250 50 0 empty empty empty 17 7 0 10 -262144 -1
-1;
#X floatatom 323 82 5 0 0 0 - - -;
#X obj 323 101 oscformat eos sub fire;
#X obj 256 177 spigot;
#X obj 289 156 tgl 15 0 empty empty empty 17 7 0 10 -262144 -1 -1 0
1;
#X obj 323 62 bng 15 250 50 0 empty empty empty 17 7 0 10 -262144 -1
-1;
#X obj 627 166 netsend -u -b;
#X obj 702 187 tgl 15 0 empty empty empty 17 7 0 10 -262144 -1 -1 0
1;
#X msg 627 41 connect 10.10.200.10 7001;
#X obj 626 105 list prepend send;
#X obj 626 145 list trim;
#X msg 626 62 100;
#X obj 608 192 oscparse;
#X obj 224 609 netsend -u -b;
#X obj 299 629 tgl 15 0 empty empty empty 17 7 0 10 -262144 -1 -1 0
1;
#X obj 224 569 list prepend send;
#X obj 224 587 list trim;
#X msg 224 529 100;
#X obj 163 609 oscparse;
#X obj 608 215 print control;
#X obj 163 632 print light;
#X obj 399 204 tgl 15 0 empty empty empty 17 7 0 10 -262144 -1 -1 0
1;
#X msg 285 587 disconnect;
#X msg 689 145 disconnect;
#X text 332 6 Light;
#X obj 626 82 oscformat stuff;
#X text 632 13 Video;
#X text 17 493 Time calculator;
#X floatatom 20 542 5 0 0 0 - - -;
#X floatatom 58 542 5 0 0 0 - - -;
#X obj 20 561 * 60;
#X obj 20 579 +;
#X floatatom 20 598 5 0 0 0 - - -;
#X obj 57 561 f;
#X obj 100 558 t b b;
#X obj 100 537 bng 15 250 50 0 empty empty empty 17 7 0 10 -262144
-1 -1;
#X obj 56 176 int;
#X obj 56 156 * 10;
#X obj 56 196 / 10;
#X obj 150 49 bng 15 250 50 0 empty empty empty 17 7 0 10 -262144 -1
-1;
#X obj 150 69 s disconnect;
#X obj 386 146 r disconnect;
#X obj 689 125 r disconnect;
#X text 230 477 Ableton;
#X obj 750 641 text define hashedtable;
#X obj 743 485 text get hashedtable;
#X obj 743 463 text search hashedtable;
#X obj 743 506 list split 1;
#X obj 777 527 list trim;
#X obj 743 442 r time;
#X obj 777 548 route video light;
#X obj 777 568 print video;
#X obj 826 588 print light;
#X obj 56 234 s time;
#X obj 56 215 change;
#X text 743 416 hashed list;
#X obj 5 115 route time lastmarker;
#X msg 750 618 read \$1;
#X obj 750 598 r projects;
#X obj 102 136 route name;
#X msg 805 618 clear;
#X obj 102 154 symbol;
#X obj 102 172 list fromsymbol;
#X obj 102 190 list split 2;
#X obj 135 229 list tosymbol;
#X obj 102 209 unpack f f;
#X obj 102 270 symbol;
#X obj 102 251 sel 45;
#X obj 102 289 s projects;
#N canvas 0 23 450 300 documentation 0;
#X text 20 17 Very important! The first marker of the Project needs
to be named with a - on the front \, and the name of the marker has
to match a corresponding txt file that loads all the cues that are
fired over OSC for the other systems;
#X text 19 78 From Reaper: Gets the time from Reaper in seconds and
the name of the markers to load files for the cues.;
#X text 19 120 Light: Sends cues to the light desk to trigger effects
;
#X text 21 154 Video: trigger video cues;
#X text 20 180 Ableton: Trigger cues in Ableton Live;
#X text 20 215 Hashed list: Searches for the given time cue and if
it matches one on the list \, outputs the matching line;
#X restore 20 340 pd documentation;
#X text 8 9 From Reaper;
#X msg 224 509 connect 192.168.0.165 7009;
#X obj 224 549 oscformat live;
#X obj 437 470 tgl 15 0 empty empty empty 17 7 0 10 -262144 -1 -1 0
1;
#X obj 361 544 print project;
#X obj 262 527 r projects;
#X connect 0 0 1 0;
#X connect 1 0 2 0;
#X connect 2 0 69 0;
#X connect 3 0 0 0;
#X connect 4 1 50 0;
#X connect 5 1 34 0;
#X connect 6 0 7 0;
#X connect 7 0 5 0;
#X connect 8 0 5 0;
#X connect 9 0 10 0;
#X connect 11 0 5 0;
#X connect 12 0 6 0;
#X connect 12 0 16 0;
#X connect 13 0 12 0;
#X connect 14 0 15 0;
#X connect 15 0 6 0;
#X connect 15 0 16 0;
#X connect 16 0 9 0;
#X connect 17 0 16 1;
#X connect 18 0 14 0;
#X connect 19 1 20 0;
#X connect 21 0 19 0;
#X connect 22 0 23 0;
#X connect 23 0 19 0;
#X connect 24 0 38 0;
#X connect 25 0 32 0;
#X connect 26 1 27 0;
#X connect 28 0 29 0;
#X connect 29 0 26 0;
#X connect 30 0 85 0;
#X connect 31 0 33 0;
#X connect 35 0 26 0;
#X connect 36 0 19 0;
#X connect 38 0 22 0;
#X connect 38 0 25 0;
#X connect 41 0 43 0;
#X connect 42 0 46 1;
#X connect 43 0 44 1;
#X connect 44 0 45 0;
#X connect 46 0 44 0;
#X connect 47 0 41 0;
#X connect 47 1 46 0;
#X connect 48 0 47 0;
#X connect 49 0 51 0;
#X connect 50 0 49 0;
#X connect 51 0 67 0;
#X connect 52 0 53 0;
#X connect 54 0 8 0;
#X connect 55 0 36 0;
#X connect 58 0 60 0;
#X connect 59 0 58 0;
#X connect 60 1 61 0;
#X connect 61 0 63 0;
#X connect 62 0 59 0;
#X connect 63 0 64 0;
#X connect 63 1 65 0;
#X connect 67 0 66 0;
#X connect 69 0 4 0;
#X connect 69 1 72 0;
#X connect 70 0 57 0;
#X connect 71 0 70 0;
#X connect 72 0 74 0;
#X connect 73 0 57 0;
#X connect 74 0 75 0;
#X connect 75 0 76 0;
#X connect 76 0 78 0;
#X connect 76 1 77 0;
#X connect 77 0 79 1;
#X connect 78 0 80 0;
#X connect 79 0 81 0;
#X connect 80 0 79 0;
#X connect 84 0 26 0;
#X connect 85 0 28 0;
#X connect 85 0 31 0;
#X connect 88 0 85 0;
#X connect 88 0 87 0;
